<?xml version="1.0" encoding="utf-8"?>
<!-- Generator: Adobe Illustrator 19.0.0, SVG Export Plug-In . SVG Version: 6.00 Build 0)  -->
<svg version="1.2" baseProfile="tiny" id="Слой_1"
	 xmlns="http://www.w3.org/2000/svg" xmlns:xlink="http://www.w3.org/1999/xlink" x="0px" y="0px" viewBox="0 0 150 125"
	 xml:space="preserve">
<path id="XMLID_1_" fill="#FDFDFE" d="M28.4,95.5l-1.3-1.9l-8-20.9c-6.8-15.8-6.2-22.5-6.2-22.5c1.8-12.8,19.2-14.8,19.2-14.8
	c13.2-2.5,25.9,16,25.9,16c10.7,13.7,23.5,13.3,23.5,13.3c12.9-0.7,9.2-9.8,9.2-9.8c-0.5-2.8-19.4-20.2-19.4-20.2
	c-5.5-8.3,1.2-11.9,1.2-11.9c12.9-4.6,28.2,8.6,28.2,8.6c9,7.2,19.2,12.1,19.2,12.1c8.4,4,12.2,2.1,13.5,0.9
	c0.5-0.4,0.9-1.6,0.9-2.1c-0.2-2.7-3.9-5.5-3.9-5.5c-3.5-3.7-30.4-20.4-30.4-20.4c-2-1.1-2.2-1.8-2.2-1.8l-2-1.4
	c1.2-1.4,2.2,0.5,2.2,0.5l1.3-0.2c9.8,5.6,31.4,20,31.4,20c10,7.7,5.3,12.3,5.3,12.3c-8.3,9.7-32-9.3-32-9.3
	C83,20.2,74.6,24.8,74.6,24.8c-9,3,4.2,13.3,4.2,13.3L90,48.5c10.3,11.2-0.5,17.7-0.5,17.7c-17.7,7.9-32.2-10.5-32.2-10.5
	C51.8,49,42.9,40.9,42.9,40.9c-7.3-5.8-18.4-0.2-18.4-0.2c-12.4,5.1-7.2,16.3-7.2,16.3l13.2,34.1c1.7,3.2,1.3,4.2,1.3,4.2
	c0.7-0.2,0.8,1.6,0.8,1.6s0.5,0.5-0.2,1.2c0,0,3,4.9,0.3,4.6l-2.2-3.7C30.7,99.1,29.9,99.8,28.4,95.5z"/>
</svg>
