<?xml version="1.0" encoding="utf-8"?>
<!-- Generator: Adobe Illustrator 19.0.0, SVG Export Plug-In . SVG Version: 6.00 Build 0)  -->
<svg version="1.2" baseProfile="tiny" id="Слой_1"
	 xmlns="http://www.w3.org/2000/svg" xmlns:xlink="http://www.w3.org/1999/xlink" x="0px" y="0px" viewBox="0 0 150 125"
	 xml:space="preserve">
<path id="XMLID_3_" fill="#FDFDFE" d="M38.2,44C40.9,46.6,51,56.8,51,56.8L42,40.6c0,0-0.3-0.8,0.2-1.1c0.4-0.2,0.9-0.5,1.3-0.5
	c0.3-0.1,0.8,0.4,0.8,0.4l16.3,26.5c8.4-2.7,5.1,2.9,5.1,2.9c2,0.7,2,3.5,2,3.5l29.5,33.2c0,2-3.6,4.9-3.6,4.9
	c-1.6,1.5-2.7-0.2-2.7-0.2L61.4,76.3c-1.9,0.7-2.9-1.6-2.9-1.6c-2.5,0.8-3.3-0.7-3.3-0.7c-1.1-1.8,3.1-6.2,3.1-6.2
	c-6.4-9.6-16.9-19.1-21-23c-0.6-0.5-0.3-0.7-0.3-0.7l0.3-0.2C37.3,43.8,37.8,43.7,38.2,44z"/>
<path id="XMLID_2_" fill="#FDFDFE" d="M124.8,95.9c0,0,0.4-0.8-3.2-4.6L58.5,22.7c0,0-1.5-1.8-1.6-3.3c0,0,0.4-1.1-3.5-4.6
	c0,0-1.1-1.6-4.7-0.2c0,0-5.1,2.6-4.2,5.8l-13.7,9.7c0,0-0.5,1.3-0.7,2.2l-5.5,3.5l-0.4,5.1l8.2-4.7c0,0,2.4,0.2,3.8-0.4l11.7-8.2
	c0,0,2.9,1.8,4.6,1.1l63.4,70.8c0,0,1.5,1.8,2.7,1.6l1.1,1.3l6-4.9l-1-1.3L124.8,95.9z"/>
</svg>
