<?xml version="1.0" encoding="utf-8"?>
<!-- Generator: Adobe Illustrator 19.0.0, SVG Export Plug-In . SVG Version: 6.00 Build 0)  -->
<svg version="1.2" baseProfile="tiny" id="Слой_1"
	 xmlns="http://www.w3.org/2000/svg" xmlns:xlink="http://www.w3.org/1999/xlink" x="0px" y="0px" viewBox="0 0 150 125"
	 xml:space="preserve">
<path id="XMLID_2_" fill="#FFFFFF" d="M82.4,80.1L59,56.6c0,0-8.2-8.2-10.5-9.9c0,0,1.5,0.9,1.9,0.2l1.5-1.5c0,0,1.1-0.7-4.3-5.6
	c0,0-3.2-2.7-3.5-2.8c0,0-0.7-0.7-0.7-1c0,0,2.9,1.2,6.9,3.4c0.6,0.3,2.3,1.4,2.9,1.7c1,0.6,1.9,1.2,3,0.1l1.2-1.2
	c0,0,0.8-0.4-0.4-2.4c0,0-4.6-7.7-5.6-10.2c0,0-0.8-1.3,2.1,0.3c0,0,7.1,4.1,9.3,5.7c0,0,0.6,0.6,1.6-0.4l0.9-1c0,0,0.9-0.4-0.6-2.1
	l1.4,1.1l2.1-2.1l-4-4.7c0,0,2.6,2.1,3.1,2.4c0,0,0.3,0.9,1.3-0.5l0.6-0.9c0,0,0.7-0.4,0-1.1c0,0-7.6-7-11-8.8c0,0-0.5-0.4-1.1,0.4
	l-1.7,1.7L55,17.9c0,0-0.6-0.2-0.9,0.5L53,20c0,0-0.7,0.7,0.8,2.8c0.4,0.5,2.1,2.7,2.1,2.7s-3.2-1.9-5-2.4c-0.1,0-0.4-0.1-0.6-0.1
	c-0.2,0-0.8,0.3-0.9,0.4c-0.4,0.4-1.1,1.1-1.4,1.5c-0.2,0.2-0.4,0.4-0.5,0.6c-0.2,0.5-0.3,2,0.5,3.7c0.2,0.4,1.6,2.8,1.6,2.8
	l2.8,4.7c0,0-7.2-3.9-10.4-4.7c0,0-1,0.1-1.2,0.5c0,0-2.4,2.1-2,2.5c0,0-0.4-0.5-1.6,1.2c0,0-0.7,0.6-0.7,1.4c0,0.3,0.7,1.5,1.2,2.3
	c1.4,2.2,4.6,6.4,9.2,9c0,0,2.8,2.2,4.5,3.7l29.2,29.4c0,0-2.1,1.4-0.5,3.6l24.3,24.3l5.3-5.3L85.6,80.7
	C85.6,80.7,83.6,79,82.4,80.1z"/>
</svg>
