<?xml version="1.0" encoding="utf-8"?>
<!-- Generator: Adobe Illustrator 19.0.0, SVG Export Plug-In . SVG Version: 6.00 Build 0)  -->
<svg version="1.2" baseProfile="tiny" id="Слой_1"
	 xmlns="http://www.w3.org/2000/svg" xmlns:xlink="http://www.w3.org/1999/xlink" x="0px" y="0px" viewBox="0 0 13 25"
	 xml:space="preserve">
<path fill="#F15A5A" d="M10.6,0H2.3C2.3,0,0,0,0,2.3v20.5C0,25,2.3,25,2.3,25h8.3c0,0,2.4,0,2.4-2.3V2.3C13,0,10.6,0,10.6,0z
	 M3.7,1.9c0-0.2,0.1-0.4,0.2-0.4h5c0.1,0,0.2,0.2,0.2,0.4V2c0,0.2-0.1,0.4-0.2,0.4H4C3.8,2.5,3.7,2.3,3.7,2V1.9z M6.5,24
	c-0.7,0-1.2-0.5-1.2-1.1c0-0.6,0.5-1.1,1.2-1.1c0.7,0,1.2,0.5,1.2,1.1S7.1,24,6.5,24z M11.3,20H1.7V3.8h9.6V20z"/>
</svg>
