<?xml version="1.0" encoding="utf-8"?>
<!-- Generator: Adobe Illustrator 19.0.0, SVG Export Plug-In . SVG Version: 6.00 Build 0)  -->
<svg version="1.2" baseProfile="tiny" id="Слой_1"
	 xmlns="http://www.w3.org/2000/svg" xmlns:xlink="http://www.w3.org/1999/xlink" x="0px" y="0px" viewBox="0 0 15 15"
	 xml:space="preserve">
<path id="XMLID_2_" fill="#F15A5A" d="M14,13.3l-3.3-3.5c0.9-1,1.3-2.3,1.3-3.6C12,3,9.4,0.5,6.3,0.5S0.7,3,0.7,6.1s2.5,5.7,5.6,5.7
	c1.2,0,2.3-0.4,3.2-1l3.3,3.5c0.1,0.1,0.3,0.2,0.5,0.2c0.2,0,0.4-0.1,0.5-0.2C14.2,14,14.2,13.6,14,13.3z M6.3,2
	c2.3,0,4.2,1.9,4.2,4.2s-1.9,4.2-4.2,4.2S2.2,8.5,2.2,6.1S4.1,2,6.3,2z"/>
</svg>
